<?xml version="1.0" encoding="utf-8"?>
<!-- Generator: Adobe Illustrator 25.0.1, SVG Export Plug-In . SVG Version: 6.00 Build 0)  -->
<svg version="1.1" id="Calque_1" xmlns="http://www.w3.org/2000/svg" xmlns:xlink="http://www.w3.org/1999/xlink" x="0px" y="0px"
	 viewBox="0 0 500 200" style="enable-background:new 0 0 500 200;" xml:space="preserve">
<style type="text/css">
	.st0{fill:#CEBE94;}
</style>
<path class="st0" d="M294.29,28.37c5.87,0.13,11.59,0.64,16.91,3.08c4.37,2,8.16,4.85,8.26,10.17c0.11,5.46-3.59,8.53-8.04,10.74
	c-3.95,1.96-8.18,2.13-12.45,1.36c-3.7-0.67-7.22-1.93-10.66-3.45c-11.2-4.95-21.57-11.53-32.79-16.47
	c-21.98-9.69-42.71-8.5-62.01,6.58c-0.58,0.46-1.13,0.96-2.47,2.11c3.48-1.2,6.02-2.21,8.64-2.95c8.49-2.38,16.95-3.15,25.22,0.9
	c1,0.49,2.01,1.05,2.84,1.78c2.21,1.95,4.24,4.16,3.28,7.41c-0.92,3.08-3.72,3.92-6.48,4.31c-2.96,0.42-5.97,0.47-8.96,0.64
	c-20.69,1.13-39.71,7.03-56.42,19.63c0.18,0.19,0.36,0.49,0.48,0.47c26.21-4.86,52.68-4.68,79.18-4.04
	c21.84,0.53,43.66,2.11,65.53,1.55c9.83-0.25,19.1-2.41,28.43-5.77c21.77-7.83,42.97-4.74,63.23,5.82c3.23,1.69,5.97,4.2,6.83,8.05
	c0.35,1.58,0.67,3.39-0.68,4.59c-1.22,1.08-2.23-0.53-3.37-0.81c-1.68-0.41-3.29-1.16-5.78-0.98c4.4,1.92,8.31,3.43,11.58,6.1
	c3.51,2.86,4.66,6.72,3.04,10.28c-0.91,1.99-1.83,2.93-4.22,1.42c-3.59-2.26-7.55-3.78-12.88-3.99c5.08,2.52,9.51,4.31,13.26,7.3
	c6.02,4.82,6.77,10.48,2.2,16.26c-1.24,1.56-2.15,2.04-3.9,0.55c-3.54-3.02-7.84-4.17-12.55-4.19c3.12,1.6,6.12,3.34,8.9,5.45
	c3.33,2.53,5.91,5.59,5.36,10.06c-0.56,4.59-4.14,6.58-7.98,8.07c-5.27,2.05-10.75,2.1-16.25,1.32c-1.86-0.27-2.89,0.1-3.7,1.99
	c-1.84,4.35-5.34,6.78-9.97,7.61c-6.54,1.17-13.19,1.67-19.78,1.39c-6.67-0.28-11.21-5.14-15.86-9.24
	c-7.96-7.02-15.5-14.52-24.6-20.14c-10.49-6.49-21.58-11.5-33.82-13.65c-1.21-0.21-2.43-0.33-3.76-0.2
	c9.83,3.17,18.79,7.89,27.08,14.2c-60.89-8.57-119.24-1.46-174.6,26.45c0.81,1.07,1.42,0.34,1.99,0.21c0.61-0.13,1.18-0.4,1.77-0.6
	c10.41-3.61,20.95-6.66,31.97-7.78c4.74-0.48,9.49-0.65,14.15,0.55c3.31,0.86,6.83,1.92,7.3,5.97c0.47,3.98-2.55,6.05-5.55,7.7
	c-6.02,3.32-12.6,3.77-19.3,3.36c-1.21-0.07-2.42-0.19-3.67-0.03c5.71,3.45,11.91,4.84,18.5,4.6c7.51-0.28,14.54-2.53,21.16-5.86
	c10.26-5.16,20.27-10.79,30.53-15.94c13.41-6.73,27.42-10.84,42.66-8.35c6.42,1.05,12.59,2.9,18.31,6.53
	c-9.67,0.65-19.07,2.12-27.8,6.41c-8.88,4.36-15.77,10.83-20.78,19.29c0.36,0.51,0.68,0.35,0.96,0.13
	c15.3-11.34,32.11-12.5,49.91-7.57c11.4,3.16,21.54,9.24,32.41,13.63c22.86,9.23,46.31,15.16,71.2,12.03
	c24.07-3.03,43.44-14.11,57.01-34.55c21.19-31.89,15.17-78.07-13.24-103.76c-18.01-16.29-39.5-23.83-63.24-25.93
	C342.08,17.96,318,21.73,294.29,28.37z"/>
<path class="st0" d="M164.79,106.3c-5.89-2.41-11.91-3.93-17.95-5.31c-12.17-2.78-24.26-5.86-36.16-9.65
	c-13.24-4.21-25.63-1.92-37.35,5.17c-6.96,4.21-13.17,9.46-19.85,14.06c-3.28,2.26-6.63,4.48-10.14,6.36
	c-7.5,4-15.48,5.49-24.04,3.67c1.98,2.54,6.25,4.96,10.97,6.36c7.39,2.18,14.59,1.15,21.7-1.3c8.79-3.03,16.8-7.64,24.76-12.34
	c2.36-1.39,4.66-2.9,7.03-4.3c2.93-1.74,6.04-3,9.46-3.36c5.13-0.54,9.52,1.55,11.44,5.41c1.92,3.85,0.98,8.77-2.4,12.45
	c-4.63,5.04-10.74,7.08-17.21,8.37c-4.25,0.85-8.58,1.04-12.89,1.43c13.57,7.39,27.03,8.39,40.4-0.31c4.61-3,8.93-6.38,13.2-9.85
	C137.15,113.9,149.19,106.12,164.79,106.3z"/>
<path class="st0" d="M81.95,68.79c7.74,5.14,15.88,9.11,24.96,10.85c9.61,1.84,18.58,0.21,26.98-4.8
	c4.95-2.95,9.39-6.58,13.87-10.16c4.89-3.9,9.91-7.57,16.9-10.3c-12.29-1.08-22.13-6.92-33.09-9.02
	c-11.8-2.26-22.21,0.79-31.75,7.66c-0.3,0.22-0.58,0.48-0.81,0.77c-0.13,0.17-0.12,0.44-0.23,0.87c2.12-0.6,4.12-1.25,6.16-1.72
	c4.07-0.94,8.14-1.17,12.16,0.34c3,1.13,5.16,3.09,5.73,6.34c0.59,3.33-1.06,5.82-3.53,7.76c-3.57,2.8-7.83,3.77-12.23,4.12
	c-7.28,0.58-14.43-0.41-21.53-1.96C84.34,69.28,83.14,69.04,81.95,68.79z"/>
</svg>
